HIERARCHY
ROOT Hips
{
	OFFSET 0.00000 0.00000 0.00000
	CHANNELS 6 Xposition Yposition Zposition Zrotation Yrotation Xrotation 
	JOINT LHipJoint
	{
		OFFSET 0 0 0
		CHANNELS 3 Zrotation Yrotation Xrotation
		JOINT LeftHip
		{
			OFFSET 1.52977 -1.71332 0.88991
			CHANNELS 3 Zrotation Yrotation Xrotation
			JOINT LeftKnee
			{
				OFFSET 2.23949 -6.15296 0.00000
				CHANNELS 3 Zrotation Yrotation Xrotation
				JOINT LeftAnkle
				{
					OFFSET 2.68396 -7.37412 0.00000
					CHANNELS 3 Zrotation Yrotation Xrotation
					JOINT LeftToe
					{
						OFFSET 0.20538 -0.56428 2.52710
						CHANNELS 3 Zrotation Yrotation Xrotation
						End Site
						{
							OFFSET 0.00000 -0.00000 1.29919
						}
					}
				}
			}
		}
	}
	JOINT RHipJoint
	{
		OFFSET 0 0 0
		CHANNELS 3 Zrotation Yrotation Xrotation
		JOINT RightHip
		{
			OFFSET -1.45689 -1.71333 0.88991
			CHANNELS 3 Zrotation Yrotation Xrotation
			JOINT RightKnee
			{
				OFFSET -2.36700 -6.50329 0.00000
				CHANNELS 3 Zrotation Yrotation Xrotation
				JOINT RightAnkle
				{
					OFFSET -2.69814 -7.41308 0.00000
					CHANNELS 3 Zrotation Yrotation Xrotation
					JOINT RightToe
					{
						OFFSET -0.18734 -0.51471 2.37479
						CHANNELS 3 Zrotation Yrotation Xrotation
						End Site
						{
							OFFSET -0.00000 -0.00000 1.22113
						}
					}
				}
			}
		}
	}
	JOINT lowerback
	{
		OFFSET 0 0 0
		CHANNELS 3 Zrotation Yrotation Xrotation
		JOINT Chest
		{
			OFFSET 0.04294 2.14638 -0.31163
			CHANNELS 3 Zrotation Yrotation Xrotation
			JOINT Chest2
			{
				OFFSET -0.00400 2.17216 0.01486
				CHANNELS 3 Zrotation Yrotation Xrotation
				JOINT lowerneck
				{
					OFFSET 0 0 0
					CHANNELS 3 Zrotation Yrotation Xrotation
					JOINT Neck
					{
						OFFSET 0.03869 1.76598 0.14916
						CHANNELS 3 Zrotation Yrotation Xrotation
						JOINT Head
						{
							OFFSET -0.00760 1.75513 -0.18948
							CHANNELS 3 Zrotation Yrotation Xrotation
							End Site
							{
								OFFSET -0.00601 1.82444 -0.08310
							}
						}
					}
				}
				JOINT LeftCollar
				{
					OFFSET 0 0 0
					CHANNELS 3 Zrotation Yrotation Xrotation
					JOINT LeftShoulder
					{
						OFFSET 3.73696 0.92058 0.01733
CHANNELS 3 Zrotation Xrotation Yrotation
						JOINT LeftElbow
						{
OFFSET 0 -5.227710 0.000000
CHANNELS 3 Zrotation Xrotation Yrotation
							JOINT LeftWrist
							{
OFFSET 0 -3.452510 0.000000
CHANNELS 3 Zrotation Xrotation Yrotation
								JOINT lhand
								{
									OFFSET 0 0 0
CHANNELS 3 Zrotation Xrotation Yrotation
									JOINT LFingers
									{
OFFSET 0 -0.552120 0.000000
CHANNELS 3 Zrotation Xrotation Yrotation
										End Site
										{
OFFSET 0 -0.445130 0.000000
										}
									}
								}
								JOINT LThumb
								{
OFFSET 0 0.000000 0.000000
CHANNELS 3 Zrotation Xrotation Yrotation
									End Site
									{
OFFSET 0 -0.451930 0.451930
									}
								}
							}
						}
					}
				}
				JOINT RightCollar
				{
					OFFSET 0 0 0
					CHANNELS 3 Zrotation Yrotation Xrotation
					JOINT RightShoulder
					{
						OFFSET -3.63819 0.83094 -0.13694
CHANNELS 3 Zrotation Xrotation Yrotation
						JOINT RightElbow
						{
OFFSET 0 -5.239800 -0.000000
CHANNELS 3 Zrotation Xrotation Yrotation
							JOINT RightWrist
							{
OFFSET 0 -3.480420 -0.000000
CHANNELS 3 Zrotation Xrotation Yrotation
								JOINT rhand
								{
									OFFSET 0 0 0
CHANNELS 3 Zrotation Xrotation Yrotation
									JOINT RFingers
									{
OFFSET 0 -0.618710 0.000000
CHANNELS 3 Zrotation Xrotation Yrotation
										End Site
										{
OFFSET 0 -0.498820 0.000000
										}
									}
								}
								JOINT RThumb
								{
OFFSET 0 0.000000 0.000000
CHANNELS 3 Zrotation Xrotation Yrotation
									End Site
									{
OFFSET 0 -0.506440 0.506440
									}
								}
							}
						}
					}
				}
			}
		}
	}
}
MOTION
Frames: 8
Frame Time: 0.008333333333333333
8.555436 17.446122 -4.993798 -62.988048 81.101093 -46.301707 0.000000 0.000000 0.000000 -17.468334 2.334945 -43.812379 1.334957 7.316011 20.655041 1.091023 0.232291 19.676473 0.005561 -0.478429 -1.314715 0.000000 0.000000 0.000000 28.724602 13.134523 -10.797812 -4.074439 -12.258665 36.653445 0.111244 -5.906751 -2.033859 -0.064674 1.634124 -4.495677 4.964269 -1.376731 19.748791 0.151090 -0.467256 6.435617 -2.565176 -0.057216 -4.124743 2.529162 1.132254 4.965160 1.677218 2.454539 -17.876387 -0.071746 1.042054 -6.231240 0.000000 0.000000 0.000000 2.661183 1.888186 -21.000642 15.423707 -24.733117 3.401249 20.483183 -18.586145 -10.922443 0.000000 0.000000 0.000000 -7.125000 0.000000 0.000000 -5.901225 41.547589 -0.504561 0.000000 0.000000 0.000000 0.538606 -0.655053 29.084244 -15.711671 -25.128180 -3.522632 -22.385767 5.455602 8.097164 0.000000 0.000000 0.000000 7.125000 0.000000 0.000000 3.862033 38.700134 0.600362
8.285381 17.418271 -4.972426 -61.947770 80.548546 -45.555147 0.000000 0.000000 0.000000 -16.570979 1.847704 -43.940435 1.251042 7.091116 19.985602 1.230763 1.940687 20.423394 0.002123 -0.293865 -0.807367 0.000000 0.000000 0.000000 29.482088 12.493702 -10.919978 -3.961937 -12.109570 36.120788 0.079031 -5.196492 -3.441865 -0.145301 2.451312 -6.754841 5.175056 -1.253258 19.792730 0.221537 -0.259432 6.473848 -2.657226 0.047269 -4.089163 2.537532 1.129453 5.084244 1.696527 2.463687 -17.979199 -0.069353 1.042170 -6.284830 0.000000 0.000000 0.000000 2.518823 1.991664 -21.058935 15.518234 -24.863041 3.440877 20.531857 -18.771473 -10.966656 0.000000 0.000000 0.000000 -7.125000 0.000000 0.000000 -5.865254 41.598696 -0.493997 0.000000 0.000000 0.000000 0.631197 -0.699884 29.249401 -15.741336 -25.168715 -3.535272 -22.365637 5.481205 8.195340 0.000000 0.000000 0.000000 7.125000 0.000000 0.000000 3.890166 38.804127 0.594829
8.002785 17.399526 -4.951601 -60.592767 80.007219 -44.503692 0.000000 0.000000 0.000000 -15.590847 1.282002 -43.951420 1.143518 6.789707 19.094158 1.402379 4.160139 21.417212 0.000330 -0.099150 -0.272340 0.000000 0.000000 0.000000 30.110843 11.900549 -11.356961 -3.913255 -12.044074 35.888111 0.041564 -4.600358 -4.689530 -0.202827 2.899175 -7.998237 5.326911 -1.120647 19.928063 0.273900 -0.043911 6.539782 -2.737155 0.156714 -4.069573 2.546578 1.125653 5.247079 1.715717 2.478345 -18.171116 -0.068430 1.044109 -6.374636 0.000000 0.000000 0.000000 2.359635 2.040878 -21.099982 15.588367 -24.959383 3.470463 20.687691 -18.899089 -11.019470 0.000000 0.000000 0.000000 -7.125000 0.000000 0.000000 -5.735859 41.669547 -0.472991 0.000000 0.000000 0.000000 0.734522 -0.815219 29.394151 -15.754917 -25.187271 -3.541016 -22.443607 5.504456 8.267890 0.000000 0.000000 0.000000 7.125000 0.000000 0.000000 3.830986 38.887979 0.577877
7.710679 17.394655 -4.930251 -59.204705 79.516094 -43.432952 0.000000 0.000000 0.000000 -14.499571 0.565258 -43.659284 0.992592 6.338798 17.771324 1.583590 7.178618 22.551096 0.002635 0.296023 0.813300 0.000000 0.000000 0.000000 30.614306 11.553604 -11.923763 -3.882429 -12.002265 35.740011 0.011281 -4.211825 -5.538147 -0.211434 2.960262 -8.168062 5.419570 -0.996924 20.149032 0.309460 0.155788 6.635096 -2.798636 0.259838 -4.063483 2.551104 1.119512 5.443885 1.753547 2.495801 -18.398700 -0.061503 1.045546 -6.482260 0.000000 0.000000 0.000000 2.192982 2.038688 -21.140467 15.635650 -25.024157 3.490462 20.896681 -18.987058 -11.104076 0.000000 0.000000 0.000000 -7.125000 0.000000 0.000000 -5.564070 41.779174 -0.443661 0.000000 0.000000 0.000000 0.837865 -0.978540 29.566655 -15.756450 -25.189343 -3.541686 -22.609128 5.528444 8.268064 0.000000 0.000000 0.000000 7.125000 0.000000 0.000000 3.688237 38.900647 0.555127
7.412343 17.400652 -4.907447 -58.198391 79.075359 -42.690928 0.000000 0.000000 0.000000 -13.225516 -0.381215 -43.078299 0.806024 5.726716 15.994352 1.713929 11.027473 23.605315 0.022908 0.959620 2.637807 0.000000 0.000000 0.000000 31.057641 11.382538 -12.699208 -3.884843 -12.005589 35.751689 -0.005644 -4.025691 -5.974702 -0.204751 2.913760 -8.038737 5.526914 -0.901797 20.368710 0.336425 0.321448 6.738688 -2.870275 0.347235 -4.049654 2.557979 1.109716 5.655367 1.812905 2.510938 -18.597254 -0.047873 1.043651 -6.583794 0.000000 0.000000 0.000000 2.037116 1.996418 -21.181558 15.669371 -25.070339 3.504715 21.081983 -19.052005 -11.178075 0.000000 0.000000 0.000000 -7.125000 0.000000 0.000000 -5.411390 41.875594 -0.418439 0.000000 0.000000 0.000000 0.935031 -1.156864 29.823176 -15.774934 -25.214529 -3.549527 -22.758340 5.549619 8.242832 0.000000 0.000000 0.000000 7.125000 0.000000 0.000000 3.556896 38.884726 0.536687
7.112934 17.408319 -4.883875 -57.733029 78.630045 -42.380541 0.000000 0.000000 0.000000 -11.664996 -1.590351 -42.356513 0.619324 5.034681 14.007943 1.741127 15.147728 24.421038 0.069463 1.694797 4.663107 0.000000 0.000000 0.000000 31.523465 11.305594 -13.752284 -3.934228 -12.072417 35.988548 -0.011886 -3.946623 -6.110953 -0.198981 2.872672 -7.924454 5.735174 -0.833071 20.488012 0.367567 0.465213 6.840455 -2.989176 0.425490 -3.985782 2.556332 1.099839 5.855291 1.889850 2.523676 -18.729169 -0.026475 1.040012 -6.662537 0.000000 0.000000 0.000000 1.895347 1.922591 -21.205742 15.702757 -25.115955 3.518799 21.163129 -19.066799 -11.236169 0.000000 0.000000 0.000000 -7.125000 0.000000 0.000000 -5.348487 41.945154 -0.404369 0.000000 0.000000 0.000000 1.009188 -1.323119 30.183399 -15.843095 -25.307384 -3.578603 -22.794916 5.544383 8.176964 0.000000 0.000000 0.000000 7.125000 0.000000 0.000000 3.518378 38.816494 0.536713
6.818239 17.411398 -4.861682 -57.666199 78.142171 -42.348982 0.000000 0.000000 0.000000 -9.758391 -3.067996 -41.690287 0.477621 4.432027 12.295346 1.680347 18.717567 24.980960 0.136868 2.384150 6.568426 0.000000 0.000000 0.000000 32.029341 11.337607 -15.002467 -4.016885 -12.182812 36.381700 -0.013502 -3.860970 -6.059493 -0.192793 2.827649 -7.799258 6.063728 -0.778267 20.447775 0.410850 0.602102 6.941993 -3.159554 0.503061 -3.837319 2.538956 1.093403 6.024936 1.964162 2.533012 -18.786105 -0.002175 1.036501 -6.712127 0.000000 0.000000 0.000000 1.745834 1.847471 -21.207577 15.751161 -25.182183 3.539426 21.123710 -19.094984 -11.242390 0.000000 0.000000 0.000000 -7.125000 0.000000 0.000000 -5.384579 41.947880 -0.406709 0.000000 0.000000 0.000000 1.036578 -1.453276 30.632526 -15.991989 -25.509756 -3.642482 -22.657682 5.490793 8.138507 0.000000 0.000000 0.000000 7.125000 0.000000 0.000000 3.632488 38.764791 0.558830
6.532644 17.408889 -4.842489 -57.761019 77.697950 -42.427344 0.000000 0.000000 0.000000 -7.830894 -4.558057 -41.323281 0.406523 4.092813 11.337941 1.639680 20.989152 25.507401 0.214376 2.978619 8.219478 0.000000 0.000000 0.000000 32.482261 11.471012 -16.277234 -4.111431 -12.307200 36.827508 -0.016027 -3.691268 -5.938115 -0.185462 2.773763 -7.649576 6.407496 -0.746936 20.298669 0.466142 0.702066 7.048276 -3.315006 0.564942 -3.629820 2.485361 1.097459 6.171133 2.025161 2.544495 -18.782015 0.024279 1.037948 -6.737923 0.000000 0.000000 0.000000 1.549325 1.836052 -21.185250 15.821438 -25.277851 3.569317 21.025754 -19.229699 -11.219408 0.000000 0.000000 0.000000 -7.125000 0.000000 0.000000 -5.467898 41.913865 -0.417667 0.000000 0.000000 0.000000 0.998821 -1.519548 31.075304 -16.208481 -25.802424 -3.736263 -22.428329 5.344227 8.126811 0.000000 0.000000 0.000000 7.125000 0.000000 0.000000 3.828651 38.735130 0.591881
